# xmcd CD database file
#
# Track frame offsets:
#	150
#	23675
#	45535
#	64122
#
# Disc length: 1165 seconds
#
# Revision: 0
# Processed by: cddbd v1.5.1PL0 Copyright (c) Steve Scherf et al.
# Submitted via: CDex 1.51
#
DISCID=29048b04
DTITLE=faith - Love Song
DYEAR=2005
DGENRE=JPop
TTITLE0=Love Song
TTITLE1=QUEST OF MAZE
TTITLE2=in the factory
TTITLE3=Love Song (instrumental)
EXTD=YEAR: 2005
EXTT0=
EXTT1=
EXTT2=
EXTT3=
PLAYORDER=
